<?xml version="1.0" encoding="iso-8859-1"?>
<!-- Generator: Adobe Illustrator 19.0.0, SVG Export Plug-In . SVG Version: 6.00 Build 0)  -->
<svg version="1.1" id="Capa_1" xmlns="http://www.w3.org/2000/svg" xmlns:xlink="http://www.w3.org/1999/xlink" x="0px" y="0px"
	 viewBox="0 0 464 464" style="enable-background:new 0 0 464 464;" xml:space="preserve">
<path style="fill:#D9DDE1;" d="M0,0h240v464H0V0z"/>
<circle style="fill:#FAA41B;" cx="240" cy="344" r="72"/>
<path style="fill:#F08015;" d="M240,320c4.418,0,8,3.582,8,8h16c-0.042-10.134-6.445-19.15-16-22.528V296h-16v9.472
	c-12.473,4.393-19.023,18.066-14.629,30.539c3.38,9.596,12.455,16.009,22.629,15.989c4.418,0,8,3.582,8,8s-3.582,8-8,8s-8-3.582-8-8
	h-16c0.042,10.134,6.445,19.15,16,22.528V392h16v-9.472c12.473-4.393,19.023-18.066,14.629-30.539
	c-3.38-9.596-12.455-16.009-22.629-15.989c-4.418,0-8-3.582-8-8S235.582,320,240,320z"/>
<circle style="fill:#FAA41B;" cx="392" cy="376" r="72"/>
<path style="fill:#F08015;" d="M392,368c-4.418,0-8-3.582-8-8s3.582-8,8-8s8,3.582,8,8h16c-0.042-10.134-6.445-19.15-16-22.528V328
	h-16v9.472c-12.473,4.393-19.023,18.066-14.629,30.539c3.38,9.596,12.455,16.009,22.629,15.989c4.418,0,8,3.582,8,8s-3.582,8-8,8
	s-8-3.582-8-8h-16c0.042,10.134,6.445,19.15,16,22.528V424h16v-9.472c12.473-4.393,19.023-18.066,14.629-30.539
	C411.249,374.393,402.174,367.981,392,368z"/>
<g>
	<path style="fill:#A6ADB9;" d="M64,376h112v16H64V376z"/>
	<path style="fill:#A6ADB9;" d="M96,408h48v16H96V408z"/>
</g>
<g>
	<path style="fill:#6B778A;" d="M24,296h88v16H24V296z"/>
	<path style="fill:#6B778A;" d="M168,216h48v16h-48V216z"/>
	<path style="fill:#6B778A;" d="M40,24h160v16H40V24z"/>
</g>
<g>
	<path style="fill:#A6ADB9;" d="M88,56h64v16H88V56z"/>
	<path style="fill:#A6ADB9;" d="M72,88h96v16H72V88z"/>
	<path style="fill:#A6ADB9;" d="M56,136h80v16H56V136z"/>
	<path style="fill:#A6ADB9;" d="M152,136h32v16h-32V136z"/>
	<path style="fill:#A6ADB9;" d="M24,184h80v16H24V184z"/>
</g>
<path style="fill:#6B778A;" d="M168,184h48v16h-48V184z"/>
<g>
	<path style="fill:#A6ADB9;" d="M24,216h96v16H24V216z"/>
	<path style="fill:#A6ADB9;" d="M24,248h64v16H24V248z"/>
</g>
<g>
	<path style="fill:#6B778A;" d="M24,328h48v16H24V328z"/>
	<path style="fill:#6B778A;" d="M184,248h32v16h-32V248z"/>
</g>
<circle style="fill:#FFD33F;" cx="328" cy="296" r="72"/>
<path style="fill:#FAA41B;" d="M328,272c4.418,0,8,3.582,8,8h16c-0.042-10.134-6.445-19.15-16-22.528V248h-16v9.472
	c-12.473,4.393-19.023,18.066-14.629,30.539c3.38,9.596,12.455,16.009,22.629,15.989c4.418,0,8,3.582,8,8s-3.582,8-8,8s-8-3.582-8-8
	h-16c0.042,10.134,6.445,19.15,16,22.528V344h16v-9.472c12.473-4.393,19.023-18.066,14.629-30.539
	c-3.38-9.596-12.455-16.009-22.629-15.989c-4.418,0-8-3.582-8-8S323.582,272,328,272z"/>
<g>
</g>
<g>
</g>
<g>
</g>
<g>
</g>
<g>
</g>
<g>
</g>
<g>
</g>
<g>
</g>
<g>
</g>
<g>
</g>
<g>
</g>
<g>
</g>
<g>
</g>
<g>
</g>
<g>
</g>
</svg>
